<?xml version="1.0" encoding="UTF-8"?>
<svg width="356px" height="81px" viewBox="0 0 356 81" version="1.1" xmlns="http://www.w3.org/2000/svg" xmlns:xlink="http://www.w3.org/1999/xlink">
    <title>Group</title>
    <g id="Page-1" stroke="none" stroke-width="1" fill="none" fill-rule="evenodd">
        <g id="Group" transform="translate(178.000000, 40.900000) scale(-1, 1) rotate(-180.000000) translate(-178.000000, -40.900000) translate(0.500000, 0.900000)" fill="#FFFFFF" fill-rule="nonzero">
            <path d="M29.5,78.5 C20.8,76.2 20.8,77.5 29.5,56.9 C40,31.7 39.5,31.7 49.9,56.5 C54.7,68 57.3,75.5 56.7,76.1 C53.5,79.3 37.7,80.8 29.5,78.5 Z" id="Path"></path>
            <path d="M8.1,64.6 C6.7,62.8 4.3,58.6 2.8,55.4 C1.83091614,53.3003183 1.18791684,51.7223719 0.765667664,50.0407376 C0.142188958,47.5576939 0,44.848585 0,39.9 C0,30.8 0.2,29.9 3.7,22.7 C10.2,9.6 22.1,1.4 36.3,0.2 C65.9,-2.3 88,26.4 77.7,53.7 C75.7,59 69.9,67.9 68.5,67.9 C68.1,67.9 67.2,66.5 66.6,64.8 C65.6,62 65.9,60.8 69,54.6 C72.1,48.5 73.5,46.6 73.5,39.9 C73.5,33.6 72,31.4 69.6,26.4 C60.8,7.7 38.1,1.7 20.8,13.5 C11.6,19.8 7.2,28.4 7.2,39.9 C7.2,47.5 9.5,55 13.1,59 C14.5,60.5 14.5,61.1 13.1,64.3 C12.3,66.3 11.4,67.9 11.1,67.9 C10.8,67.9 9.5,66.4 8.1,64.6 Z" id="Path"></path>
            <path d="M253.4,62.6 C247.8,60.5 243.7,57.2 241,52.4 C234.2,40.9 238.2,24.7 249.4,18.1 C255.8,14.3 265.8,14.3 272.9,17.9 C278.1,20.6 279,21.6 277.7,23.6 C277.1,24.5 275.4,24 271.1,21.9 C264.3,18.4 259.7,18.2 254,20.8 C246,24.4 242,31.9 242.7,41.9 C243.7,56.1 256.7,63.6 269.8,57.6 C274.7,55.4 275.5,55.2 276.6,56.6 C278,58.2 277.7,58.5 272,61.6 C268,63.7 257.9,64.3 253.4,62.6 Z" id="Path"></path>
            <path d="M101.4,55.2 C102.9,50.9 106.8,40.3 110,31.7 L115.8,15.9 L120,15.9 L124.2,15.9 L132.8,39.2 L141.3,62.4 L137.8,62.7 C135.9,62.9 133.8,62.8 133.1,62.6 C132.5,62.3 129.3,54.1 126,44.3 L120,26.4 L114,44.4 L107.9,62.4 L103.2,62.7 L98.5,63 L101.4,55.2 Z" id="Path"></path>
            <polygon id="Path" points="149.5 39.4 149.5 15.9 153.5 15.9 157.5 15.9 157.5 39.4 157.5 62.9 153.5 62.9 149.5 62.9"></polygon>
            <path d="M171.5,39.4 L171.5,15.9 L175.5,15.9 L179.4,15.9 L179.7,24.7 L180,33.4 L184.1,33.7 L188.3,34 L193.1,25 L198,15.9 L202.8,15.9 L207.6,15.9 L204.4,21.7 C202.6,24.8 200.1,29.2 198.9,31.4 L196.6,35.5 L199.5,38.2 C207.2,45.5 204.8,58.2 195.2,61.8 C193.6,62.4 187.7,62.9 181.9,62.9 L171.5,62.9 L171.5,39.4 Z M193.5,53.4 C196.2,51 196.1,46.2 193.3,43.2 C191.5,41.3 190.1,40.9 185.3,40.9 L179.5,40.9 L179.5,47.7 C179.5,51.5 179.8,54.9 180.3,55.3 C181.6,56.7 191.4,55.3 193.5,53.4 Z" id="Shape"></path>
            <polygon id="Path" points="216.5 39.4 216.5 15.9 220.5 15.9 224.5 15.9 224.5 39.4 224.5 62.9 220.5 62.9 216.5 62.9"></polygon>
            <path d="M290.5,39.4 C290.5,16.6 290.6,15.9 292.5,15.9 C294.4,15.9 294.5,16.6 294.5,39.4 C294.5,62.2 294.4,62.9 292.5,62.9 C290.6,62.9 290.5,62.2 290.5,39.4 Z" id="Path"></path>
            <path d="M303.5,60.9 C303.5,59.2 304.3,59 311.8,58.7 L320,58.4 L320.3,37.2 C320.5,16.7 320.6,15.9 322.5,15.9 C324.4,15.9 324.5,16.6 324.5,37.4 L324.5,58.9 L333,58.9 C340.8,58.9 341.5,59.1 341.5,60.9 C341.5,62.8 340.8,62.9 322.5,62.9 C304.3,62.9 303.5,62.8 303.5,60.9 Z" id="Path"></path>
            <path d="M350.5,39.4 C350.5,16.6 350.6,15.9 352.5,15.9 C354.4,15.9 354.5,16.6 354.5,39.4 C354.5,62.2 354.4,62.9 352.5,62.9 C350.6,62.9 350.5,62.2 350.5,39.4 Z" id="Path"></path>
        </g>
    </g>
</svg>